<svg width="72" height="44" viewBox="0 0 72 44" fill="none" xmlns="http://www.w3.org/2000/svg">
<path d="M7.17969 28.7969L7.80469 28.2031C7.96094 28.0469 7.96094 27.7969 7.80469 27.6719L2.96094 22.8281L13.6172 22.8281C13.8359 22.8281 13.9922 22.6406 13.9922 22.4531L13.9922 21.5781C13.9922 21.3594 13.8359 21.2031 13.6172 21.2031L2.96094 21.2031L7.80469 16.3281C7.96094 16.2031 7.96094 15.9531 7.80469 15.7969L7.17969 15.2031C7.05469 15.0469 6.80469 15.0469 6.64844 15.2031L0.117188 21.7344C-0.0390619 21.8906 -0.0390619 22.1094 0.117188 22.2656L6.64844 28.7969C6.80469 28.9531 7.05469 28.9531 7.17969 28.7969Z" fill="#6E7191"/>
<path d="M23.2722 16.8H25.6722V21.248H30.4722V16.8H32.8722V28H30.4722V23.232H25.6722V28H23.2722V16.8ZM37.6524 28.192C37.1938 28.192 36.7884 28.128 36.4364 28C36.0844 27.8613 35.7858 27.6747 35.5404 27.44C35.2951 27.1947 35.1084 26.912 34.9804 26.592C34.8524 26.2613 34.7884 25.904 34.7884 25.52C34.7884 23.8133 35.8018 22.96 37.8284 22.96H40.3564V22.56C40.3564 22.0053 40.2284 21.616 39.9724 21.392C39.7271 21.168 39.3324 21.056 38.7884 21.056C38.3084 21.056 37.9618 21.1413 37.7484 21.312C37.5351 21.472 37.4124 21.6747 37.3804 21.92H35.2684C35.2898 21.5573 35.3804 21.216 35.5404 20.896C35.7111 20.576 35.9458 20.304 36.2444 20.08C36.5538 19.8453 36.9271 19.664 37.3644 19.536C37.8018 19.3973 38.3031 19.328 38.8684 19.328C39.4124 19.328 39.9031 19.3867 40.3404 19.504C40.7884 19.6213 41.1671 19.8133 41.4764 20.08C41.7964 20.336 42.0418 20.672 42.2124 21.088C42.3831 21.504 42.4684 22.0053 42.4684 22.592V25.84C42.4684 26.288 42.4738 26.6827 42.4844 27.024C42.5058 27.3547 42.5378 27.68 42.5804 28H40.6124C40.5698 27.7653 40.5431 27.5893 40.5324 27.472C40.5324 27.344 40.5324 27.1573 40.5324 26.912C40.2978 27.2533 39.9404 27.552 39.4604 27.808C38.9911 28.064 38.3884 28.192 37.6524 28.192ZM38.3084 26.56C38.5644 26.56 38.8151 26.528 39.0604 26.464C39.3058 26.3893 39.5244 26.2827 39.7164 26.144C39.9084 25.9947 40.0631 25.808 40.1804 25.584C40.2978 25.36 40.3564 25.0987 40.3564 24.8V24.4H38.2284C37.8231 24.4 37.5031 24.496 37.2684 24.688C37.0444 24.8693 36.9324 25.12 36.9324 25.44C36.9324 25.7813 37.0498 26.0533 37.2844 26.256C37.5191 26.4587 37.8604 26.56 38.3084 26.56ZM47.6716 28.192C46.4449 28.192 45.5116 27.9413 44.8716 27.44C44.2316 26.9387 43.8849 26.2187 43.8316 25.28H45.9756C45.9969 25.4613 46.0396 25.6213 46.1036 25.76C46.1676 25.8987 46.2636 26.016 46.3916 26.112C46.5196 26.208 46.6849 26.2827 46.8876 26.336C47.1009 26.3787 47.3622 26.4 47.6716 26.4C48.2902 26.4 48.7276 26.3093 48.9836 26.128C49.2396 25.936 49.3676 25.7067 49.3676 25.44C49.3676 25.12 49.2609 24.88 49.0476 24.72C48.8342 24.56 48.4556 24.48 47.9116 24.48H46.6316V22.912H47.7996C48.2049 22.912 48.5142 22.8267 48.7276 22.656C48.9409 22.4853 49.0476 22.2613 49.0476 21.984C49.0476 21.7387 48.9409 21.536 48.7276 21.376C48.5249 21.2053 48.1729 21.12 47.6716 21.12C47.1489 21.12 46.7702 21.2107 46.5356 21.392C46.3116 21.5627 46.1782 21.8187 46.1356 22.16H43.9916C44.0449 21.2427 44.3809 20.544 44.9996 20.064C45.6182 19.5733 46.5089 19.328 47.6716 19.328C48.2902 19.328 48.8182 19.3867 49.2556 19.504C49.7036 19.6213 50.0716 19.792 50.3596 20.016C50.6476 20.2293 50.8556 20.4907 50.9836 20.8C51.1222 21.0987 51.1916 21.4347 51.1916 21.808C51.1916 22.2133 51.0849 22.576 50.8716 22.896C50.6689 23.216 50.3436 23.4507 49.8956 23.6C50.5036 23.7493 50.9249 23.9947 51.1596 24.336C51.3942 24.6667 51.5116 25.0613 51.5116 25.52C51.5116 25.904 51.4316 26.2613 51.2716 26.592C51.1222 26.912 50.8876 27.1947 50.5676 27.44C50.2582 27.6747 49.8636 27.8613 49.3836 28C48.9036 28.128 48.3329 28.192 47.6716 28.192ZM55.5743 28.192C55.1156 28.192 54.7103 28.128 54.3583 28C54.0063 27.8613 53.7076 27.6747 53.4623 27.44C53.217 27.1947 53.0303 26.912 52.9023 26.592C52.7743 26.2613 52.7103 25.904 52.7103 25.52C52.7103 23.8133 53.7236 22.96 55.7503 22.96H58.2783V22.56C58.2783 22.0053 58.1503 21.616 57.8943 21.392C57.649 21.168 57.2543 21.056 56.7103 21.056C56.2303 21.056 55.8836 21.1413 55.6703 21.312C55.457 21.472 55.3343 21.6747 55.3023 21.92H53.1903C53.2116 21.5573 53.3023 21.216 53.4623 20.896C53.633 20.576 53.8676 20.304 54.1663 20.08C54.4756 19.8453 54.849 19.664 55.2863 19.536C55.7236 19.3973 56.225 19.328 56.7903 19.328C57.3343 19.328 57.825 19.3867 58.2623 19.504C58.7103 19.6213 59.089 19.8133 59.3983 20.08C59.7183 20.336 59.9636 20.672 60.1343 21.088C60.305 21.504 60.3903 22.0053 60.3903 22.592V25.84C60.3903 26.288 60.3956 26.6827 60.4063 27.024C60.4276 27.3547 60.4596 27.68 60.5023 28H58.5343C58.4916 27.7653 58.465 27.5893 58.4543 27.472C58.4543 27.344 58.4543 27.1573 58.4543 26.912C58.2196 27.2533 57.8623 27.552 57.3823 27.808C56.913 28.064 56.3103 28.192 55.5743 28.192ZM56.2303 26.56C56.4863 26.56 56.737 26.528 56.9823 26.464C57.2276 26.3893 57.4463 26.2827 57.6383 26.144C57.8303 25.9947 57.985 25.808 58.1023 25.584C58.2196 25.36 58.2783 25.0987 58.2783 24.8V24.4H56.1503C55.745 24.4 55.425 24.496 55.1903 24.688C54.9663 24.8693 54.8543 25.12 54.8543 25.44C54.8543 25.7813 54.9716 26.0533 55.2063 26.256C55.441 26.4587 55.7823 26.56 56.2303 26.56ZM61.5934 26.24H62.5534C62.6601 26.08 62.7561 25.8507 62.8414 25.552C62.9268 25.2427 62.9908 24.9013 63.0334 24.528C63.0868 24.144 63.1241 23.744 63.1454 23.328C63.1774 22.9013 63.1934 22.4853 63.1934 22.08V19.52H69.8334V26.24H70.8734V30H69.0174V28H63.4494V30H61.5934V26.24ZM67.7214 26.24V21.28H65.1294V22.4C65.1294 22.7733 65.1188 23.1413 65.0974 23.504C65.0761 23.8667 65.0441 24.2187 65.0014 24.56C64.9694 24.8907 64.9214 25.2 64.8574 25.488C64.7934 25.776 64.7134 26.0267 64.6174 26.24H67.7214Z" fill="#6E7191"/>
</svg>
