<svg xmlns="http://www.w3.org/2000/svg" width="154" height="30" fill="none"><rect width="154" height="30" fill="#F56E1E" rx="8"/><g clip-path="url(#a)"><path fill="#fff" d="M17.153 7.77a1.246 1.246 0 0 0-1.481-.726l-2.75.75c-.544.15-.922.644-.922 1.207 0 7.731 6.269 14 14 14 .563 0 1.056-.378 1.206-.922l.75-2.75a1.246 1.246 0 0 0-.725-1.481l-3-1.25a1.246 1.246 0 0 0-1.447.362l-1.262 1.54A10.562 10.562 0 0 1 16.5 13.48l1.54-1.26c.429-.35.576-.937.363-1.446l-1.25-3v-.004Z"/></g><path fill="#fff" d="M40.55 20.154c-.616 0-1.162-.075-1.638-.224a3.688 3.688 0 0 1-1.204-.63 2.966 2.966 0 0 1-.77-.966 3.502 3.502 0 0 1-.308-1.274h1.764c.056.476.266.863.63 1.162.364.299.873.448 1.526.448.737 0 1.279-.13 1.624-.392.355-.261.532-.635.532-1.12 0-.467-.168-.835-.504-1.106-.336-.28-.887-.42-1.652-.42h-1.19v-1.344h1.19c.597 0 1.045-.121 1.344-.364.308-.252.462-.593.462-1.022 0-.42-.145-.751-.434-.994-.28-.252-.737-.378-1.372-.378-.625 0-1.097.121-1.414.364-.308.243-.485.588-.532 1.036H36.84c.065-.877.401-1.577 1.008-2.1.607-.523 1.507-.784 2.702-.784s2.086.247 2.674.742c.597.495.896 1.176.896 2.044 0 .513-.145.947-.434 1.302-.29.345-.677.597-1.162.756.597.14 1.069.406 1.414.798.355.392.532.905.532 1.54 0 .43-.084.826-.252 1.19a2.415 2.415 0 0 1-.742.924c-.327.252-.737.453-1.232.602-.485.14-1.05.21-1.694.21Zm7.706 0c-.402 0-.761-.056-1.078-.168a2.38 2.38 0 0 1-.784-.49 2.189 2.189 0 0 1-.49-.742 2.466 2.466 0 0 1-.169-.924c0-.737.22-1.283.659-1.638.438-.364 1.082-.546 1.931-.546h2.31v-.406c0-.56-.125-.943-.377-1.148-.243-.215-.63-.322-1.163-.322-.475 0-.825.075-1.05.224a.857.857 0 0 0-.392.616h-1.497c.018-.317.098-.607.238-.868.149-.27.35-.504.602-.7.26-.196.573-.345.938-.448a4.184 4.184 0 0 1 1.232-.168c.457 0 .867.051 1.232.154.373.103.69.266.951.49.262.215.463.495.603.84.149.345.224.76.224 1.246v2.954c0 .392.004.737.014 1.036.009.29.032.574.07.854h-1.4a99.477 99.477 0 0 1-.07-.546 9.196 9.196 0 0 1-.014-.56c-.178.345-.486.644-.925.896-.429.243-.96.364-1.596.364Zm.42-1.344c.26 0 .508-.033.741-.098.243-.075.453-.177.63-.308.178-.14.318-.308.42-.504.113-.205.169-.439.169-.7v-.406h-2.03c-.392 0-.71.084-.953.252-.233.168-.35.415-.35.742 0 .308.108.555.323.742.224.187.574.28 1.05.28Zm5.394-6.23h1.54v3.01h.84l2.604-3.01h1.736l-3.15 3.542L60.93 20h-1.876l-2.604-3.15h-.84V20h-1.54v-7.42Zm10.154 7.574c-.401 0-.76-.056-1.078-.168a2.382 2.382 0 0 1-.784-.49 2.19 2.19 0 0 1-.49-.742 2.466 2.466 0 0 1-.168-.924c0-.737.22-1.283.658-1.638.439-.364 1.083-.546 1.932-.546h2.31v-.406c0-.56-.126-.943-.378-1.148-.242-.215-.63-.322-1.162-.322-.476 0-.826.075-1.05.224a.858.858 0 0 0-.392.616h-1.498c.019-.317.098-.607.238-.868.15-.27.35-.504.602-.7.262-.196.574-.345.938-.448a4.184 4.184 0 0 1 1.232-.168c.458 0 .868.051 1.232.154.374.103.69.266.952.49.262.215.462.495.602.84.15.345.224.76.224 1.246v2.954c0 .392.005.737.014 1.036.01.29.033.574.07.854h-1.4l-.07-.546a9.278 9.278 0 0 1-.014-.56c-.177.345-.485.644-.924.896-.43.243-.961.364-1.596.364Zm.42-1.344c.262 0 .509-.033.742-.098.243-.075.453-.177.63-.308.178-.14.318-.308.42-.504.112-.205.168-.439.168-.7v-.406h-2.03c-.392 0-.71.084-.952.252-.233.168-.35.415-.35.742 0 .308.108.555.322.742.224.187.574.28 1.05.28Zm8.125 1.344c-1.008 0-1.788-.205-2.338-.616-.542-.42-.836-1.013-.882-1.778h1.568c.046.336.196.597.448.784.252.177.644.266 1.176.266.634 0 1.073-.103 1.316-.308a.968.968 0 0 0 .364-.77c0-.28-.108-.5-.322-.658-.206-.168-.57-.252-1.092-.252h-1.218v-1.204h1.12c.429 0 .742-.089.938-.266a.867.867 0 0 0 .294-.672c0-.243-.103-.453-.308-.63-.206-.187-.56-.28-1.064-.28-.542 0-.92.089-1.134.266a1.14 1.14 0 0 0-.378.714h-1.568c.046-.71.33-1.274.854-1.694.532-.42 1.274-.63 2.226-.63 1.017 0 1.759.2 2.226.602.476.401.714.924.714 1.568 0 .355-.09.667-.266.938-.168.27-.448.476-.84.616.522.13.882.35 1.078.658.205.308.308.663.308 1.064 0 .317-.066.616-.196.896-.131.28-.332.523-.602.728-.262.205-.598.369-1.008.49a5.292 5.292 0 0 1-1.414.168Zm6.375-6.258h-2.45V12.58h6.44v1.316h-2.45V20h-1.54v-6.104Zm5.39-1.316h1.54v2.604h1.68c.952 0 1.657.205 2.114.616.457.401.686.999.686 1.792 0 .747-.224 1.335-.672 1.764-.448.43-1.157.644-2.128.644h-3.22v-7.42Zm3.08 6.104c.513 0 .873-.089 1.078-.266.215-.187.322-.462.322-.826 0-.364-.107-.635-.322-.812-.205-.187-.565-.28-1.078-.28h-1.54v2.184h1.54Zm10.57 1.47c-1.007 0-1.787-.205-2.337-.616-.542-.42-.836-1.013-.882-1.778h1.568c.046.336.196.597.448.784.252.177.644.266 1.176.266.634 0 1.073-.103 1.316-.308a.968.968 0 0 0 .364-.77c0-.28-.108-.5-.322-.658-.206-.168-.57-.252-1.092-.252h-1.218v-1.204h1.12c.429 0 .742-.089.938-.266a.867.867 0 0 0 .294-.672c0-.243-.103-.453-.308-.63-.206-.187-.56-.28-1.064-.28-.542 0-.92.089-1.134.266a1.14 1.14 0 0 0-.378.714h-1.568c.046-.71.33-1.274.854-1.694.532-.42 1.274-.63 2.226-.63 1.017 0 1.759.2 2.226.602.476.401.714.924.714 1.568 0 .355-.089.667-.266.938-.168.27-.448.476-.84.616.522.13.882.35 1.078.658.205.308.308.663.308 1.064 0 .317-.066.616-.196.896a1.95 1.95 0 0 1-.602.728c-.262.205-.598.369-1.008.49a5.292 5.292 0 0 1-1.414.168Zm4.763-7.574h3.5c.933 0 1.61.191 2.03.574.42.373.63.854.63 1.442 0 .327-.098.644-.294.952-.196.299-.472.5-.826.602.457.112.802.327 1.036.644.242.308.364.672.364 1.092 0 .644-.215 1.157-.644 1.54-.43.383-1.102.574-2.016.574h-3.78v-7.42Zm3.57 6.104c.504 0 .849-.08 1.036-.238.196-.168.294-.401.294-.7 0-.299-.098-.523-.294-.672-.187-.159-.532-.238-1.036-.238h-2.03v1.848h2.03Zm-.21-3.052c.466 0 .793-.075.98-.224a.803.803 0 0 0 .28-.644c0-.27-.094-.48-.28-.63-.187-.159-.514-.238-.98-.238h-1.82v1.736h1.82Zm7.844 4.522c-.513 0-.994-.08-1.442-.238a3.355 3.355 0 0 1-1.148-.728 3.36 3.36 0 0 1-.77-1.176c-.186-.476-.28-1.027-.28-1.652v-.28c0-.588.094-1.106.28-1.554a3.242 3.242 0 0 1 1.918-1.862 4.289 4.289 0 0 1 1.442-.238c.514 0 .99.08 1.428.238a3.216 3.216 0 0 1 1.932 1.862c.187.448.28.966.28 1.554v.28c0 .625-.093 1.176-.28 1.652a3.332 3.332 0 0 1-.77 1.176c-.326.317-.714.56-1.162.728a4.162 4.162 0 0 1-1.428.238Zm0-1.344c.271 0 .528-.047.77-.14a1.72 1.72 0 0 0 .658-.434c.196-.196.35-.448.462-.756.122-.308.182-.681.182-1.12v-.28c0-.401-.06-.747-.182-1.036a1.93 1.93 0 0 0-1.12-1.134 2.243 2.243 0 0 0-1.554 0 1.982 1.982 0 0 0-.658.42c-.186.187-.34.425-.462.714a2.87 2.87 0 0 0-.168 1.036v.28c0 .439.056.812.168 1.12.122.308.276.56.462.756.196.196.416.34.658.434.252.093.514.14.784.14Zm5.175-6.23h1.54v2.982h3.5V12.58h1.54V20h-1.54v-3.122h-3.5V20h-1.54v-7.42Zm11.765 7.574c-.514 0-.994-.08-1.442-.238a3.336 3.336 0 0 1-1.148-.728 3.332 3.332 0 0 1-.77-1.176c-.187-.476-.28-1.027-.28-1.652v-.28c0-.588.093-1.106.28-1.554.186-.457.443-.84.77-1.148a3.17 3.17 0 0 1 1.148-.714 4.285 4.285 0 0 1 1.442-.238c.513 0 .989.08 1.428.238a3.16 3.16 0 0 1 1.162.714c.326.308.583.69.77 1.148.186.448.28.966.28 1.554v.28c0 .625-.094 1.176-.28 1.652a3.36 3.36 0 0 1-.77 1.176 3.32 3.32 0 0 1-1.162.728 4.17 4.17 0 0 1-1.428.238Zm0-1.344c.27 0 .527-.047.77-.14.252-.093.471-.238.658-.434.196-.196.35-.448.462-.756.121-.308.182-.681.182-1.12v-.28c0-.401-.061-.747-.182-1.036a1.93 1.93 0 0 0-1.12-1.134 2.239 2.239 0 0 0-1.554 0 1.972 1.972 0 0 0-.658.42 2.186 2.186 0 0 0-.462.714 2.87 2.87 0 0 0-.168 1.036v.28c0 .439.056.812.168 1.12.121.308.275.56.462.756.196.196.415.34.658.434.252.093.513.14.784.14Zm5.174-6.23h1.54v3.01h.84l2.604-3.01h1.736l-3.15 3.542 3.29 3.878h-1.876l-2.604-3.15h-.84V20h-1.54v-7.42Z"/><defs><clipPath id="a"><path fill="#fff" d="M12 7h16v16H12z"/></clipPath></defs></svg>